<svg xmlns="http://www.w3.org/2000/svg" viewBox="0 0 260 40"><defs><style>.a{fill:#0094d7;}</style></defs><title>pbc_logo</title><path class="a" d="M257.78,11.75a2.27,2.27,0,0,1,1.09.29,2.06,2.06,0,0,1,.83.84,2.29,2.29,0,0,1,0,2.24,2.1,2.1,0,0,1-.82.84,2.23,2.23,0,0,1-2.21,0,2.16,2.16,0,0,1-.83-.84,2.31,2.31,0,0,1-.3-1.11,2.24,2.24,0,0,1,.3-1.13,2,2,0,0,1,.83-.84,2.29,2.29,0,0,1,1.09-.29Zm0,.37a1.91,1.91,0,0,0-.91.24,1.71,1.71,0,0,0-.69.7,2,2,0,0,0-.25.94,1.93,1.93,0,0,0,.25.93,1.79,1.79,0,0,0,.69.69,1.84,1.84,0,0,0,1.85,0,1.8,1.8,0,0,0,.7-.69,1.93,1.93,0,0,0,.25-.93,2,2,0,0,0-.25-.94,1.74,1.74,0,0,0-.7-.7,1.94,1.94,0,0,0-.91-.24Zm-1,3.13V12.83h.82a2,2,0,0,1,.61.07.58.58,0,0,1,.3.23.61.61,0,0,1,.11.36.64.64,0,0,1-.19.46.75.75,0,0,1-.5.21.59.59,0,0,1,.21.13,3,3,0,0,1,.35.48l.29.47h-.47l-.21-.39a2.05,2.05,0,0,0-.41-.57.47.47,0,0,0-.31-.09h-.23v1h-.38Zm.38-1.37h.48a.76.76,0,0,0,.46-.1.34.34,0,0,0,.12-.27.32.32,0,0,0-.06-.19.38.38,0,0,0-.17-.13,1.36,1.36,0,0,0-.39,0h-.45v.72ZM48.4,11.75H60.2q3.77,0,4.48.06A5.06,5.06,0,0,1,67,12.4a2.59,2.59,0,0,1,1.05,1.32,7,7,0,0,1,.31,2.35,5.35,5.35,0,0,1-.49,2.63,2.8,2.8,0,0,1-1.73,1.21,4.18,4.18,0,0,1,1.62.56c.8.54,1.2,1.69,1.2,3.43a5.69,5.69,0,0,1-.63,3,2.44,2.44,0,0,1-1.14,1,6.71,6.71,0,0,1-2,.41c-.57,0-2.24.07-5,.09H48.4V11.76ZM60.22,18.3A11.15,11.15,0,0,0,63,18.12q.59-.23.59-1.19t-.71-1.18a22.22,22.22,0,0,0-2.64-.09h-7V18.3h7Zm0,6.07c1.47,0,2.34,0,2.61,0a2.25,2.25,0,0,0,.68-.13q.65-.25.65-1.27c0-.7-.25-1.11-.75-1.23a31.83,31.83,0,0,0-3.2-.09H53.17v2.75h7.07Zm16-12.62V24.13H87.92v4.24H71V11.75Zm18.13,0v7.63a24.05,24.05,0,0,0,.18,3.32A1.6,1.6,0,0,0,95.79,24a18.76,18.76,0,0,0,4.25.3,28.26,28.26,0,0,0,3.6-.15,2.41,2.41,0,0,0,1.43-.6,1.8,1.8,0,0,0,.39-.77,9.13,9.13,0,0,0,.18-1.55q.06-1.12.06-1.84V11.75h5v7.63q-.09,4-.25,5.21a4,4,0,0,1-2,3.07,7.08,7.08,0,0,1-2.69.75,56,56,0,0,1-5.7.19c-2,0-3.51,0-4.59-.11a17.86,17.86,0,0,1-2.81-.39,3.75,3.75,0,0,1-3.09-3.22,17.86,17.86,0,0,1-.21-1.79c0-.54-.05-1.78-.07-3.73V11.73h5Zm37,0v3.91H118.07v2.4h12.58v3.65H118.07v2.67h13.35v4H113.14V11.76h18.19ZM161.09,22c0,.81,0,1.34,0,1.57a6.61,6.61,0,0,1-.56,3,3.45,3.45,0,0,1-2.44,1.66,30.68,30.68,0,0,1-6.28.44q-4.69,0-6.68-.18a8.43,8.43,0,0,1-3-.71,3.18,3.18,0,0,1-1.35-1.28,5.69,5.69,0,0,1-.58-2.2q-.11-1.13-.11-4.09t.11-4.17a6.38,6.38,0,0,1,.42-2,3.62,3.62,0,0,1,2.77-2,47.05,47.05,0,0,1,8.44-.47c2.11,0,3.65,0,4.62.15a7.13,7.13,0,0,1,2.3.55,3.08,3.08,0,0,1,1.58,1.59,8.1,8.1,0,0,1,.46,3.1c0,.07,0,.34,0,.82h-5a6.38,6.38,0,0,0-.11-1.11.91.91,0,0,0-.27-.46,3,3,0,0,0-1.46-.37c-.78-.08-2-.12-3.53-.12s-2.64,0-3.25.1a2.46,2.46,0,0,0-1.27.41,2,2,0,0,0-.62,1.23,15.92,15.92,0,0,0-.18,2.75,15.77,15.77,0,0,0,.15,2.66,1.79,1.79,0,0,0,.6,1.11,2.79,2.79,0,0,0,1.34.44c.61.07,1.7.11,3.25.11,1.92,0,3.2,0,3.83-.1a2.19,2.19,0,0,0,1.29-.43,3,3,0,0,0,.47-2h5ZM164,11.75h12.09c2.83,0,4.53,0,5.09.09a3.76,3.76,0,0,1,1.62.57A3,3,0,0,1,184.06,14a10.57,10.57,0,0,1,.35,3.16,11.81,11.81,0,0,1-.22,2.67,2.62,2.62,0,0,1-.84,1.36,4.08,4.08,0,0,1-2,.75,3.2,3.2,0,0,1,2.26.92,2.32,2.32,0,0,1,.5,1.15,24.17,24.17,0,0,1,.1,2.83v1.55h-4.93V27.5a13.15,13.15,0,0,0-.1-2,1.83,1.83,0,0,0-.38-.91,1.34,1.34,0,0,0-.76-.37,16.7,16.7,0,0,0-2-.08h-7.05V28.4h-5V11.76ZM176,20q1.84,0,2.2-.07a1.36,1.36,0,0,0,.61-.19,1.09,1.09,0,0,0,.45-.61,4.45,4.45,0,0,0,.13-1.24,3.65,3.65,0,0,0-.15-1.22,1,1,0,0,0-.53-.58,1.77,1.77,0,0,0-.64-.15c-.25,0-.95,0-2.1,0h-7V20H176Zm29.56-8.22a3.78,3.78,0,0,1,3.52,2.76,23.59,23.59,0,0,1,.45,5.51,23.71,23.71,0,0,1-.45,5.52,3.77,3.77,0,0,1-3.52,2.76,64.72,64.72,0,0,1-7.26.27,65.75,65.75,0,0,1-7.37-.27,3.78,3.78,0,0,1-3.53-2.76A24.21,24.21,0,0,1,187,20a23,23,0,0,1,.44-5.42,3.76,3.76,0,0,1,3.53-2.76,64.14,64.14,0,0,1,7.31-.27,65.16,65.16,0,0,1,7.32.27ZM193.49,16a1.63,1.63,0,0,0-1.22,1.09,12.54,12.54,0,0,0-.29,3.37,10.88,10.88,0,0,0,.16,2.2A1.88,1.88,0,0,0,194,24.15a41.64,41.64,0,0,0,4.35.15q3,0,4-.11a3,3,0,0,0,1.48-.49,1.73,1.73,0,0,0,.59-1,10.68,10.68,0,0,0,.16-2.17,21.33,21.33,0,0,0-.12-2.63,2.75,2.75,0,0,0-.43-1.27A1.89,1.89,0,0,0,202.7,16a43.55,43.55,0,0,0-4.4-.13,30,30,0,0,0-4.79.21Zm23.41,6.83q0,1.23.49,1.58a2,2,0,0,0,.93.27q.57,0,3.6.07t3.81,0a3,3,0,0,0,1-.19c.37-.15.55-.57.55-1.25a1.08,1.08,0,0,0-.39-1,3.55,3.55,0,0,0-1.6-.27c-.62,0-1.92,0-3.92-.15l-4-.17a12,12,0,0,1-2.77-.34,3,3,0,0,1-1.51-.93,5.45,5.45,0,0,1-.93-3.58,5.84,5.84,0,0,1,1.06-4,4,4,0,0,1,2.48-1.15,58.44,58.44,0,0,1,6.8-.25,42.36,42.36,0,0,1,5.09.21,5,5,0,0,1,3.1,1.27,4.89,4.89,0,0,1,.84,3.22c0,.14,0,.39,0,.78h-4.85a3.63,3.63,0,0,0-.11-.94.76.76,0,0,0-.35-.41,2.74,2.74,0,0,0-1.14-.25q-.82-.05-3.46-.05a21.37,21.37,0,0,0-3.89.2c-.47.13-.7.51-.7,1.11a1,1,0,0,0,.7,1.07A47.2,47.2,0,0,0,223,18q4,.13,5.32.29a5.66,5.66,0,0,1,2.14.63,3,3,0,0,1,1.27,1.5,7.76,7.76,0,0,1,.37,2.74,7.59,7.59,0,0,1-.62,3.5A3,3,0,0,1,230.22,28a6.85,6.85,0,0,1-2.35.56c-1.08.1-3.09.15-6.05.15q-3.7,0-5.47-.19a7.14,7.14,0,0,1-2.65-.69,2.83,2.83,0,0,1-1.28-1.41,7.48,7.48,0,0,1-.36-2.66v-.78h4.85Zm22.36,0q0,1.23.49,1.58a2,2,0,0,0,.93.27q.57,0,3.6.07t3.81,0a3,3,0,0,0,1-.19c.37-.15.55-.57.55-1.25a1.08,1.08,0,0,0-.4-1,3.57,3.57,0,0,0-1.59-.27c-.62,0-1.92,0-3.92-.15l-4-.17a12,12,0,0,1-2.77-.34,3,3,0,0,1-1.51-.93,5.45,5.45,0,0,1-.93-3.58c0-1.87.35-3.2,1.06-4a4,4,0,0,1,2.48-1.15,58.28,58.28,0,0,1,6.79-.25,42.27,42.27,0,0,1,5.09.21A5,5,0,0,1,253,13a4.9,4.9,0,0,1,.84,3.22c0,.14,0,.39,0,.78H249a3.6,3.6,0,0,0-.12-.94.76.76,0,0,0-.36-.41,2.78,2.78,0,0,0-1.14-.25c-.54,0-1.7-.05-3.47-.05a21.25,21.25,0,0,0-3.88.2,1,1,0,0,0-.7,1.11,1,1,0,0,0,.7,1.07,47.3,47.3,0,0,0,5.31.31q4,.13,5.32.29a5.66,5.66,0,0,1,2.14.63,3,3,0,0,1,1.28,1.5,8,8,0,0,1,.37,2.74,7.58,7.58,0,0,1-.63,3.5A3,3,0,0,1,252.53,28a7,7,0,0,1-2.35.56c-1.08.1-3.1.15-6.05.15q-3.7,0-5.47-.19a7.14,7.14,0,0,1-2.66-.69,2.83,2.83,0,0,1-1.28-1.41,7.48,7.48,0,0,1-.36-2.66v-.78h4.85ZM48.42.14h4.82a17.64,17.64,0,0,1,1.85.06A1.94,1.94,0,0,1,56.5.87a3.63,3.63,0,0,1,.37,1.93,4,4,0,0,1-.31,1.85,1.39,1.39,0,0,1-.58.55,3.28,3.28,0,0,1-1,.26c-.31,0-.88.05-1.71.05h-2.7V7.26H48.42V.13Zm4.83,3.6.89,0a.79.79,0,0,0,.29-.08.47.47,0,0,0,.23-.27,1.88,1.88,0,0,0,.06-.56,1.5,1.5,0,0,0-.08-.56A.48.48,0,0,0,54.37,2a5.71,5.71,0,0,0-1.12-.07H50.56V3.74h2.69ZM64.63,6.06H60l-.6,1.21H56.92L60.65.14H64l3.68,7.13H65.23ZM62.52,1.8h-.43L60.74,4.5h3.14L62.52,1.8ZM77.23,4.51c0,.35,0,.57,0,.67A2.82,2.82,0,0,1,77,6.48a1.47,1.47,0,0,1-1,.7,13.51,13.51,0,0,1-2.69.19q-2,0-2.87-.08A3.5,3.5,0,0,1,69.11,7a1.37,1.37,0,0,1-.58-.55,2.45,2.45,0,0,1-.25-.94c0-.33,0-.91,0-1.76s0-1.42,0-1.79a2.67,2.67,0,0,1,.18-.85A1.57,1.57,0,0,1,69.66.21,21.17,21.17,0,0,1,73.28,0c.91,0,1.57,0,2,.06a3.23,3.23,0,0,1,1,.23,1.33,1.33,0,0,1,.68.68,3.49,3.49,0,0,1,.19,1.33s0,.15,0,.36H75a3.33,3.33,0,0,0,0-.48.38.38,0,0,0-.11-.2,1.27,1.27,0,0,0-.62-.15c-.33,0-.84-.05-1.52-.05s-1.14,0-1.39,0a1,1,0,0,0-.54.17.89.89,0,0,0-.26.52,6.54,6.54,0,0,0-.08,1.18,6.83,6.83,0,0,0,.07,1.14.82.82,0,0,0,.26.48,1.2,1.2,0,0,0,.58.19,13.31,13.31,0,0,0,1.4,0c.82,0,1.37,0,1.64,0a1,1,0,0,0,.55-.19,1.29,1.29,0,0,0,.2-.85h2.15ZM80.74.14V7.26H78.48V.14h2.25Zm8.91,0V1.81h-5.3V3.16h5V4.8h-5V7.27H82.2V.14Zm3.23,0V7.26H90.63V.14h2.25Zm10.31,4.38c0,.35,0,.57,0,.67A2.82,2.82,0,0,1,103,6.48a1.47,1.47,0,0,1-1,.7,13.49,13.49,0,0,1-2.7.19c-1.34,0-2.3,0-2.87-.08A3.5,3.5,0,0,1,95.08,7a1.38,1.38,0,0,1-.58-.55,2.41,2.41,0,0,1-.25-.94c0-.33,0-.91,0-1.76s0-1.42.05-1.79a2.63,2.63,0,0,1,.19-.85,1.57,1.57,0,0,1,1.2-.88A20.06,20.06,0,0,1,99.28,0c.91,0,1.57,0,2,.06a3.14,3.14,0,0,1,1,.23,1.32,1.32,0,0,1,.68.68,3.56,3.56,0,0,1,.19,1.33v.35H101a3.32,3.32,0,0,0,0-.48.33.33,0,0,0-.11-.2,1.24,1.24,0,0,0-.62-.16c-.33,0-.84-.05-1.52-.05a13,13,0,0,0-1.39,0,1,1,0,0,0-.54.17.89.89,0,0,0-.26.52,6.39,6.39,0,0,0-.08,1.18,6.83,6.83,0,0,0,.07,1.14.77.77,0,0,0,.25.48,1.2,1.2,0,0,0,.58.19,13.31,13.31,0,0,0,1.4,0c.82,0,1.37,0,1.64,0a1,1,0,0,0,.56-.19,1.29,1.29,0,0,0,.2-.85h2.15ZM39.4,11.75H27.92V.13H11.49V11.75H0V28.38H11.49V40H27.92V28.38H39.4Z"/></svg>